<svg width="1713" height="294" viewBox="0 0 1713 294" fill="none" xmlns="http://www.w3.org/2000/svg">
  <path
    d="M124.751 294H0.769531V0.618164H124.751C150.12 0.618164 172.625 3.27783 192.266 8.59717C212.043 13.7801 228.273 20.8726 240.958 29.8745C253.779 38.7401 264.281 49.5151 272.465 62.1997C280.648 74.8843 286.445 88.2508 289.855 102.299C293.265 116.211 294.97 131.351 294.97 147.718C294.97 164.085 293.265 179.225 289.855 193.137C286.582 207.049 280.853 220.348 272.669 233.032C264.486 245.58 253.984 256.287 241.163 265.153C228.478 274.018 212.247 281.043 192.47 286.226C172.693 291.409 150.12 294 124.751 294ZM100.2 84.0908V211.55H133.548C152.78 211.55 167.783 206.095 178.558 195.183C189.333 184.135 194.721 168.314 194.721 147.718C194.721 127.123 189.333 111.369 178.558 100.458C167.783 89.5465 152.78 84.0908 133.548 84.0908H100.2ZM535.977 294H309.7V0.618164H533.521V82.4541H409.131V116.416C411.995 110.824 418.678 108.028 429.181 108.028H523.497V184.544H429.181C418.269 184.544 411.586 181.817 409.131 176.361V212.369H535.977V294ZM652.184 294H552.753V0.618164H725.018C754.888 0.618164 777.87 7.23324 793.964 20.4634C810.059 33.6935 818.106 50.5381 818.106 70.9971C818.106 83.1361 815.105 93.9793 809.104 103.527C803.239 113.074 795.328 120.644 785.372 126.236C775.415 131.828 764.503 136.057 752.637 138.921C740.907 141.785 728.632 143.217 715.811 143.217V148.537C726.859 148.537 736.27 149.082 744.044 150.173C751.819 151.128 759.116 153.038 765.936 155.902C772.892 158.766 778.688 162.926 783.326 168.382C787.963 173.701 791.714 180.521 794.578 188.841C795.26 190.75 798.124 200.23 803.171 217.279C808.354 234.192 813.4 249.058 818.311 261.879C823.221 274.564 827.722 283.43 831.813 288.476V294H724.199C720.789 286.771 717.584 278.383 714.583 268.835C711.583 259.152 708.65 248.786 705.786 237.738C702.922 226.69 701.217 220.143 700.671 218.097C695.761 201.184 690.442 190.068 684.713 184.749C679.121 179.43 670.324 176.77 658.321 176.77H652.184V294ZM652.184 74.8843V124.395H685.532C697.262 124.395 706.332 122.554 712.742 118.871C719.289 115.052 722.562 108.505 722.562 99.2305C722.562 90.0921 719.357 83.7498 712.947 80.2036C706.536 76.6574 697.398 74.8843 685.532 74.8843H652.184ZM936.973 294H837.951V0.618164H936.359L933.085 95.3433L921.424 163.267H925.516C930.017 136.807 935.2 115.802 941.064 100.253C946.929 84.5682 954.499 70.6561 963.774 58.5171L1008.17 0.618164H1126.22L1026.17 112.938L1127.85 294H1014.72L957.432 177.998L936.973 202.139V294ZM1235.47 294H1130.72L1201.1 0.618164H1361.7L1432.08 294H1327.33L1320.17 259.629C1318.53 251.582 1318.53 244.216 1320.17 237.533H1242.63C1244.27 244.216 1244.27 251.582 1242.63 259.629L1235.47 294ZM1251.43 174.52V176.77H1311.37V174.52C1306.6 169.746 1301.42 154.811 1295.82 129.714C1292.41 113.211 1289.48 95.1387 1287.03 75.498C1284.57 55.8574 1283.34 42.3545 1283.34 34.9893H1279.46C1279.46 42.3545 1278.23 55.8574 1275.77 75.498C1273.32 95.1387 1270.39 113.211 1266.98 129.714C1261.38 154.811 1256.2 169.746 1251.43 174.52ZM1543.79 294H1444.36V0.618164H1572.63C1581.5 0.618164 1589.96 0.959147 1598 1.64111C1606.19 2.32308 1615.12 3.68701 1624.8 5.73291C1634.49 7.64242 1643.35 10.2339 1651.4 13.5073C1659.45 16.6444 1667.36 21.009 1675.13 26.6011C1682.91 32.1932 1689.45 38.6719 1694.77 46.0371C1700.09 53.266 1704.39 62.2679 1707.66 73.043C1710.94 83.818 1712.57 95.7524 1712.57 108.846C1712.57 126.577 1709.57 142.467 1703.57 156.516C1697.57 170.428 1689.25 181.817 1678.61 190.682C1668.11 199.548 1655.9 206.299 1641.99 210.937C1628.21 215.438 1613.21 217.688 1596.98 217.688C1581.84 217.688 1564.11 215.301 1543.79 210.527V294ZM1543.79 76.9302V144.445H1572.22C1584.36 144.445 1593.91 141.99 1600.87 137.08C1607.96 132.033 1611.51 123.031 1611.51 110.074C1611.51 97.2528 1608.03 88.5236 1601.07 83.8862C1594.25 79.2489 1584.64 76.9302 1572.22 76.9302H1543.79Z"
    fill="white" />
</svg>