<svg width="189" height="137" viewBox="0 0 189 137" fill="none" xmlns="http://www.w3.org/2000/svg">
  <path
    d="M51.7525 121.073L68.5335 114.207L75.7538 126.722C79.3464 132.948 86.9723 136 94.5 136C102.028 136 109.654 132.948 113.246 126.722L120.467 114.207L137.248 121.073C145.742 124.548 154.771 123.016 160.731 118.927C163.713 116.881 165.951 114.178 166.948 111.113C167.95 108.036 167.687 104.633 165.732 101.245L163.043 96.584H168.01C178.512 96.584 185.667 91.315 187.824 84.9589C188.902 81.781 188.718 78.3525 187.079 75.2392C185.717 72.6499 183.363 70.3048 179.945 68.5C183.363 66.6951 185.717 64.35 187.079 61.7606C188.718 58.6473 188.902 55.2188 187.824 52.041C185.667 45.6849 178.512 40.416 168.01 40.416H163.043L165.732 35.7553C167.687 32.3671 167.95 28.9647 166.948 25.8873C165.951 22.8224 163.713 20.1194 160.731 18.0735C154.771 13.9843 145.742 12.4517 137.248 15.9271L120.467 22.7929L113.246 10.2784C109.654 4.05166 102.028 1.00001 94.5 1C86.9723 0.999987 79.3464 4.05161 75.7538 10.2783L68.5333 22.7929L51.7525 15.9271C43.258 12.4516 34.229 13.9843 28.2688 18.0735C25.2868 20.1193 23.049 22.8224 22.0516 25.8873C21.0501 28.9646 21.3131 32.3671 23.268 35.7552L25.9572 40.416H20.9897C10.4881 40.416 3.33309 45.6849 1.17645 52.041C0.0982023 55.2189 0.282455 58.6474 1.92071 61.7607C3.28326 64.35 5.63705 66.6951 9.05526 68.5C5.63707 70.3048 3.28328 72.6499 1.92073 75.2392C0.282457 78.3525 0.0981986 81.781 1.17645 84.9589C3.33308 91.315 10.4881 96.584 20.9898 96.584H25.9573L23.268 101.245C21.3131 104.633 21.0501 108.036 22.0515 111.113C23.049 114.178 25.2867 116.881 28.2687 118.927C34.2289 123.016 43.258 124.548 51.7525 121.073Z"
    fill="#9747FF" stroke="black" />
</svg>