<svg width="187" height="135" viewBox="0 0 187 135" fill="#9747FF" xmlns="http://www.w3.org/2000/svg">
  <path d="M75.1869 9.52817C82.1321 -2.50942 104.868 -2.50939 111.813 9.52825L124.137 30.8878C127.299 36.3687 134.495 39.916 142.45 39.916H167.01C187.691 39.916 194.719 60.6298 176.56 68.0598L167.513 71.7611C158.445 75.4711 154.644 83.7617 158.749 90.8767L164.299 100.495C171.845 113.573 153.105 126.43 136.437 119.61L103.05 105.95C97.0964 103.514 89.9036 103.514 83.9503 105.95L50.5631 119.61C33.8945 126.43 15.155 113.573 22.7011 100.495L28.2505 90.8767C32.3555 83.7617 28.5544 75.4711 19.4869 71.7611L10.4405 68.0598C-7.71926 60.6299 -0.690977 39.916 19.9897 39.916H44.5499C52.505 39.916 59.7007 36.3687 62.863 30.8878L75.1869 9.52817Z"/>
  <path  d="M111.813 125.472C104.868 137.509 82.1322 137.509 75.1869 125.472L62.8631 104.112C59.7008 98.631 52.5051 95.084 44.5499 95.084H19.9898C-0.691006 95.084 -7.71929 74.3699 10.4406 66.9402L19.4869 63.2389C28.5545 59.529 32.3555 51.2381 28.2506 44.1234L22.7011 34.5054C15.1551 21.4269 33.8946 8.57006 50.5632 15.3898L83.9503 29.0501C89.9037 31.4857 97.0964 31.4857 103.05 29.0501L136.437 15.3898C153.105 8.57006 171.845 21.4269 164.299 34.5054L158.75 44.1235C154.644 51.2381 158.445 59.529 167.513 63.2389L176.56 66.9402C194.719 74.3699 187.691 95.084 167.01 95.084H142.45C134.495 95.084 127.299 98.631 124.137 104.112L111.813 125.472Z"/>
</svg>